<svg xmlns="http://www.w3.org/2000/svg" viewBox="0 0 200 60" width="200" height="60" isolation="isolate"><defs><clipPath><rect width="200" height="60"/></clipPath></defs><g clip-path="url(#_clipPath_xp3254xYNPgnMtdqcrIVPKp44kx6t5cE)"><path d="M55.1 54.9L55.1 54.9 55.1 54.9Q55.1 59.2 50.4 59.2L50.4 59.2 50.4 59.2Q44.9 59.2 37.8 54.9L37.8 54.9 37.8 54.9Q35.7 53.6 26.8 46.8L26.8 46.8 26.8 46.8Q22 49.2 17.3 49.2L17.3 49.2 17.3 49.2Q12.6 49.2 9.5 46.1L9.5 46.1 9.5 46.1Q6.3 43.1 6.3 38.1L6.3 38.1 6.3 38.1Q6.3 30.8 12.9 24.7L12.9 24.7 12.9 24.7Q19.6 18.6 27.5 18.6L27.5 18.6 27.5 18.6Q30.5 18.6 30.7 19.9L30.7 19.9 30.7 19.9Q29.9 19.5 28.1 19.5L28.1 19.5 28.1 19.5Q24.7 19.5 19.8 22.9L19.8 22.9 19.8 22.9Q14.8 26.3 11.1 31.1L11.1 31.1 11.1 31.1Q7.4 35.8 7.4 39.1L7.4 39.1 7.4 39.1Q7.4 46.5 16.2 46.5L16.2 46.5 16.2 46.5Q19.8 46.5 24.1 44.8L24.1 44.8 24.1 44.8Q17.5 40.1 13 40.1L13 40.1 13 40.1Q10.5 40.1 9 41.4L9 41.4 9 41.4Q8.8 41.4 8.8 41.2L8.8 41.2 8.8 41.2Q8.8 40.3 10.6 39.5L10.6 39.5 10.6 39.5Q12.4 38.8 13.7 38.8L13.7 38.8 13.7 38.8Q17.9 38.8 25.6 44.2L25.6 44.2 25.6 44.2Q32.6 41 37.3 35L37.3 35 37.3 35Q42.1 29 42.1 23.3L42.1 23.3 42.1 23.3Q42.1 18.8 39.2 16.4L39.2 16.4 39.2 16.4Q36.2 14 31.2 14L31.2 14 31.2 14Q24.3 14 16 18.3L16 18.3 16 18.3Q7.6 22.6 4.8 27.8L4.8 27.8 4.8 27.8Q4.5 27.8 4.5 27.2L4.5 27.2 4.5 27.2Q4.5 26.7 6.5 24.4L6.5 24.4 6.5 24.4Q11.2 19.1 17.6 15.7L17.6 15.7 17.6 15.7Q24.1 12.4 30.5 12.4L30.5 12.4 30.5 12.4Q35.6 12.4 40.2 16.4L40.2 16.4 40.2 16.4Q44.7 20.5 44.7 25.5L44.7 25.5 44.7 25.5Q44.7 30.5 39.9 36.5L39.9 36.5 39.9 36.5Q35.1 42.4 28.2 46.1L28.2 46.1 28.2 46.1Q36.6 52.2 41 54.2L41 54.2 41 54.2Q45.3 56.2 49.5 56.2L49.5 56.2 49.5 56.2Q53.6 56.2 53.6 53.1L53.6 53.1 53.6 53.1Q53.6 49.7 48.7 46.7L48.7 46.7 48.7 46.7Q46.4 45.2 42.9 44.1L42.9 44.1 42.9 44.1Q39.4 42.9 39.4 43.1L39.4 43.1 39.4 43.1Q39.4 42.9 40.1 42.9L40.1 42.9 40.1 42.9Q47.1 42.9 51.1 46.5L51.1 46.5 51.1 46.5Q55.1 50.1 55.1 54.9ZM49.5 25.9L49.5 25.9 48.9 24.7 48.9 24.7Q48.9 24.5 49.4 24.5L49.4 24.5 49.4 24.5Q49.9 24.5 51.6 25.2L51.6 25.2 51.6 25.2Q53.3 25.9 53.3 26.3L53.3 26.3 53.3 26.3Q52.6 27.7 49.6 33.9L49.6 33.9 49.6 33.9Q46.6 40.1 46.6 42.2L46.6 42.2 46.6 42.2Q46.6 44.3 47.5 44.3L47.5 44.3 47.5 44.3Q48.5 44.3 50.6 41.9L50.6 41.9 50.6 41.9Q52.6 39.5 54.6 36.2L54.6 36.2 60.3 26.9 60.3 26.9Q61.3 25.3 62.5 25.3L62.5 25.3 62.5 25.3Q64.9 25.3 64.9 26.3L64.9 26.3 64.9 26.3Q64.9 26 64.6 26.6L64.6 26.6 64.6 26.6Q62.7 30.1 61.2 35L61.2 35 61.2 35Q59.6 39.9 59.6 41.4L59.6 41.4 59.6 41.4Q59.6 45.5 61.1 45.5L61.1 45.5 61.1 45.5Q61.6 45.5 63.1 44.2L63.1 44.2 63.1 44.2Q63.2 44.2 63.2 44.8L63.2 44.8 63.2 44.8Q63.2 46.5 61.2 46.5L61.2 46.5 61.2 46.5Q59.2 46.5 58.1 44.7L58.1 44.7 58.1 44.7Q57 42.9 57 40.2L57 40.2 57 40.2Q57 37.5 58.1 33.1L58.1 33.1 58.1 33.1Q52.8 41.7 51 43.9L51 43.9 51 43.9Q49.2 46.2 47.5 46.2L47.5 46.2 47.5 46.2Q45.8 46.2 44.6 44.9L44.6 44.9 44.6 44.9Q43.5 43.7 43.5 42.2L43.5 42.2 43.5 42.2Q43.5 39.3 46.5 32.8L46.5 32.8 46.5 32.8Q49.5 26.2 49.5 25.9ZM77.7 15.4L77.7 15.4 77.7 15.4Q77.8 15.4 77.8 15.7L77.8 15.7 77.5 17.7 77.5 17.7Q76.5 21.9 74.4 21.9L74.4 21.9 74.4 21.9Q72.8 21.9 71.9 21.1L71.9 21.1 71.9 21.1Q74.5 19.3 77.7 15.4ZM74.2 26.5L74.2 26.5Q72.1 30.1 70.2 35.7L70.2 35.7 70.2 35.7Q68.3 41.2 68.3 43.3L68.3 43.3 68.3 43.3Q68.3 45.4 69.1 45.4L69.1 45.4 69.1 45.4Q69.8 45.4 70.7 44.7L70.7 44.7 70.7 44.7Q71.7 43.9 71.9 43.7L71.9 43.7 71.9 43.7Q72.1 43.5 72.3 43.3L72.3 43.3 72.3 43.3Q72.6 43.3 72.6 43.6L72.6 43.6 72.6 43.6Q72.6 44.4 70.7 45.5L70.7 45.5 70.7 45.5Q68.7 46.7 67.9 46.7L67.9 46.7 67.9 46.7Q65.3 46.7 65.3 42.9L65.3 42.9 65.3 42.9Q65.3 37.3 69.3 28L69.3 28 69.3 28Q69.3 27.8 69.7 27L69.7 27 69.7 27Q70.1 26.3 70.3 26.1L70.3 26.1 70.3 26.1Q70.8 25.6 71.6 25.6L71.6 25.6 71.6 25.6Q74 25.6 74.2 26.5L74.2 26.5 74.2 26.5ZM91.7 35.1L91.7 35.1 91.7 35.1Q92.1 35.1 92.1 35.4L92.1 35.4 92.1 35.4Q92.1 35.7 92 36L92 36 92 36Q84.9 46.4 80.2 46.4L80.2 46.4 80.2 46.4Q74.4 46.4 74.4 41L74.4 41 74.4 41Q74.4 36.9 78.5 31L78.5 31 78.5 31Q82.6 25 86.4 25L86.4 25 86.4 25Q87.8 25 89.2 26L89.2 26 89.2 26Q90.7 27 90.7 28.2L90.7 28.2 90.7 28.2Q90.7 31.4 88.5 31.4L88.5 31.4 88.5 31.4Q87.9 31.4 87.8 31L87.8 31 87.8 31Q88.7 29.2 88.7 28L88.7 28 88.7 28Q88.7 26.8 88.1 26.8L88.1 26.8 88.1 26.8Q87.3 26.8 85.4 28.4L85.4 28.4 85.4 28.4Q82.1 31.1 79.6 35.2L79.6 35.2 79.6 35.2Q77.2 39.2 77.2 42L77.2 42 77.2 42Q77.2 44.8 79.3 44.8L79.3 44.8 79.3 44.8Q81.7 44.8 84.6 42.3L84.6 42.3 84.6 42.3Q86.6 40.5 89.1 37.8L89.1 37.8 89.1 37.8Q91.7 35.1 91.7 35.1ZM101.4 10.8L101.4 10.8 99.1 11.2 99.1 11.2Q98.6 11.2 98.6 10.8L98.6 10.8 98.6 10.8Q98.6 9.8 101.2 9.8L101.2 9.8 101.2 9.8Q103.8 9.8 105.1 10.8L105.1 10.8 105.1 10.8Q106.4 11.7 106.4 13L106.4 13 106.4 13Q106.4 14.3 101.1 26.3L101.1 26.3 101.1 26.3Q95.4 38.8 94.5 41.5L94.5 41.5 94.5 41.5Q94.8 40.9 99.2 35.1L99.2 35.1 97.8 33.9 97.8 33.9Q97.8 33.5 98.8 32.3L98.8 32.3 98.8 32.3Q99.8 31.2 100.1 31.2L100.1 31.2 100.1 31.2Q100.4 31.2 101.6 32L101.6 32 101.6 32Q104.8 28.5 108.1 25.8L108.1 25.8 108.1 25.8Q111.5 23 112.9 23L112.9 23 112.9 23Q113.6 23 113.6 24.5L113.6 24.5 113.6 24.5Q113.6 28.1 110.8 31.2L110.8 31.2 110.8 31.2Q108 34.4 104.4 35.1L104.4 35.1 104.4 35.1Q107.2 39.5 107.2 44.8L107.2 44.8 107.2 44.8Q107.2 46.8 106.7 48.9L106.7 48.9 106.7 48.9Q106.3 51 105.7 51L105.7 51 105.7 51Q105.1 51 105.1 50.5L105.1 50.5 105.5 47.8 105.5 47.8Q105.5 41.8 99.9 36L99.9 36 99.9 36Q94.7 43.4 94 45.3L94 45.3 94 45.3Q94.2 45.5 94.2 45.7L94.2 45.7 94.2 45.7Q94.2 46.3 93.4 46.3L93.4 46.3 93.4 46.3Q92.2 46.3 92.2 44.3L92.2 44.3 92.2 44.3Q92.2 42.3 93.4 38.2L93.4 38.2 98.6 25.1 98.6 25.1Q102.7 14.5 102.7 12.6L102.7 12.6 102.7 12.6Q102.7 10.8 101.4 10.8ZM109.9 26L109.9 26 109.9 26Q109.9 25.8 109.8 25.8L109.8 25.8 109.8 25.8Q109.7 25.8 106.2 29L106.2 29 106.2 29Q102.8 32.2 102.5 32.7L102.5 32.7 102.5 32.7Q102.7 33.3 104.2 33.3L104.2 33.3 104.2 33.3Q105.6 33.3 107.7 30.6L107.7 30.6 107.7 30.6Q109.9 28 109.9 26ZM157.4 19.3L157.4 19.3 157.4 19.3Q157.4 24 153.5 30.1L153.5 30.1 153.5 30.1Q149.5 36.1 144 41.2L144 41.2 144 41.2Q138.5 46.2 132.4 49.7L132.4 49.7 132.4 49.7Q126.2 53.1 122 53.1L122 53.1 122 53.1Q119.7 53.1 118.2 52.1L118.2 52.1 118.2 52.1Q116.6 51.1 116.6 49.4L116.6 49.4 116.6 49.4Q116.6 42.7 128.8 34.8L128.8 34.8 128.8 34.8Q137.8 28.9 147.2 25.8L147.2 25.8 147.2 25.8Q147.3 25.8 147.5 25.7L147.5 25.7 147.5 25.7Q147.7 25.6 147.8 25.6L147.8 25.6 147.8 25.6Q147.8 25.6 147.8 25.8L147.8 25.8 147.8 25.8Q147.8 26.2 146.8 26.7L146.8 26.7 146.8 26.7Q118.1 41.8 118.1 49.5L118.1 49.5 118.1 49.5Q118.1 52.3 120.8 52.3L120.8 52.3 120.8 52.3Q124.8 52.3 130.1 48.6L130.1 48.6 130.1 48.6Q139.4 42.3 146.8 33L146.8 33 146.8 33Q154.3 23.6 154.3 17.8L154.3 17.8 154.3 17.8Q154.3 12.5 146.8 12.5L146.8 12.5 146.8 12.5Q140.8 12.5 131 16.7L131 16.7 131 16.7Q123.8 19.9 117.7 24.2L117.7 24.2 117.7 24.2Q111.6 28.5 111.6 31L111.6 31 111.6 31Q111.6 32.4 113.3 33.4L113.3 33.4 113.3 33.4Q113.3 33.4 113.3 33.6L113.3 33.6 113.3 33.6Q113.3 33.7 112.8 33.7L112.8 33.7 112.8 33.7Q112.3 33.7 111.4 32.6L111.4 32.6 111.4 32.6Q110.6 31.4 110.6 30.5L110.6 30.5 110.6 30.5Q110.6 27.2 117.1 22.7L117.1 22.7 117.1 22.7Q123.5 18.1 132 14.8L132 14.8 132 14.8Q140.4 11.5 145.7 11.5L145.7 11.5 145.7 11.5Q157.4 11.5 157.4 19.3ZM171.9 29.5L171.9 29.5 170.2 29.2 170.2 29.2Q170.3 30.5 170.3 31.4L170.3 31.4 170.3 31.4Q170.3 37 167.5 41.3L167.5 41.3 167.5 41.3Q164.6 45.6 160.3 45.6L160.3 45.6 160.3 45.6Q154.8 45.6 154.8 39.9L154.8 39.9 154.8 39.9Q154.8 37.5 155.9 34.9L155.9 34.9 155.9 34.9Q156.9 32.3 158.5 30.7L158.5 30.7 158.5 30.7Q157.7 29.5 157.7 27.5L157.7 27.5 157.7 27.5Q157.7 25.5 159.4 23.9L159.4 23.9 159.4 23.9Q161 22.3 163.4 22.3L163.4 22.3 163.4 22.3Q167.9 22.3 169.4 26.9L169.4 26.9 169.4 26.9Q172.6 27.6 172.6 28.4L172.6 28.4 172.6 28.4Q172.6 29.5 171.9 29.5ZM162.6 24.2L162.6 24.2 162.6 24.2Q161.1 24.2 160.2 25.5L160.2 25.5 160.2 25.5Q159.2 26.8 159.2 28.1L159.2 28.1 159.2 28.1Q159.2 29.5 159.4 30.1L159.4 30.1 159.4 30.1Q164.1 26.6 165.8 26.6L165.8 26.6 166 26.6 166 26.6Q165.2 24.2 162.6 24.2ZM161.8 32.4L161.8 32.4 161.8 32.4Q162.5 32.9 162.9 32.8L162.9 32.8 162.9 32.8Q163.3 32.8 163.4 32.8L163.4 32.8 163.4 32.8Q163.7 32.8 163.7 33.1L163.7 33.1 163.7 33.1Q163.7 33.7 162.8 33.7L162.8 33.7 162.8 33.7Q161.9 33.7 161.1 33.2L161.1 33.2 161.1 33.2Q157.5 37.4 157.5 41.1L157.5 41.1 157.5 41.1Q157.5 44.8 160.3 44.8L160.3 44.8 160.3 44.8Q163.1 44.8 165.5 40.4L165.5 40.4 165.5 40.4Q167.9 36.1 167.9 32L167.9 32 167.9 32Q167.9 30.3 167.3 29.2L167.3 29.2 167.3 29.2Q164.8 29.6 161.8 32.4ZM178.8 18.1L178.8 18.1 177.4 18.4 177.4 18.4Q177.2 18.4 177.2 18.2L177.2 18.2 177.2 18.2Q177.2 17.7 178 17.4L178 17.4 178 17.4Q178.8 17.1 179.2 17.1L179.2 17.1 179.2 17.1Q182.2 17.1 182.2 20.5L182.2 20.5 182.2 20.5Q182.2 22.5 181 25.6L181 25.6 181 25.6Q181.3 25.9 183.5 25.9L183.5 25.9 183.5 25.9Q185.6 25.9 186.9 25.4L186.9 25.4 186.9 25.4Q188.1 24.9 188.3 24.9L188.3 24.9 188.3 24.9Q188.6 24.9 188.6 25.1L188.6 25.1 188.6 25.1Q188.6 25.3 188.3 25.6L188.3 25.6 188.3 25.6Q185.1 28.3 180.5 28.9L180.5 28.9 180.5 28.9Q180.1 28.9 179.5 29.1L179.5 29.1 179.5 29.1Q173.3 41.5 173.3 44.8L173.3 44.8 173.3 44.8Q173.3 45.8 174.1 45.8L174.1 45.8 176 45.4 176.1 45.5 176.1 45.5Q176.1 46.9 173.9 46.9L173.9 46.9 173.9 46.9Q170.9 46.9 170.9 43.7L170.9 43.7 170.9 43.7Q170.9 41 172.8 36.2L172.8 36.2 172.8 36.2Q173.9 33.7 176 28.7L176 28.7 176 28.7Q173.7 27.8 173.7 26.1L173.7 26.1 173.7 26.1Q173.7 25.5 173.9 25.3L173.9 25.3 173.9 25.3Q175 25.8 177.1 26L177.1 26 177.1 26Q179.3 21 179.3 19.6L179.3 19.6 179.3 19.6Q179.3 18.1 178.8 18.1ZM194.7 24L194.7 24Q195.1 24 196.6 25.4L196.6 25.4 196.6 25.4Q198 26.9 198 27.2L198 27.2 198 27.2Q198 27.6 197.7 27.6L197.7 27.6 197.7 27.6Q196.2 27.3 195.8 27.3L195.8 27.3 195.8 27.3Q192.7 27.3 189.5 29.5L189.5 29.5 189.5 29.5Q186.2 31.8 186.2 34.1L186.2 34.1 186.2 34.1Q186.2 34.6 189.4 38.2L189.4 38.2 189.4 38.2Q192.6 41.8 192.6 43.2L192.6 43.2 192.6 43.2Q192.6 44.5 190.7 45.8L190.7 45.8 190.7 45.8Q188.8 47.2 186.9 47.2L186.9 47.2 186.9 47.2Q184.9 47.2 183.6 46.6L183.6 46.6 183.6 46.6Q182.2 46 182.2 45.4L182.2 45.4 182.2 45.4Q190 43.8 190 41.5L190 41.5 190 41.5Q190 41 188.2 39.4L188.2 39.4 188.2 39.4Q184.7 36.3 184.7 32.4L184.7 32.4 184.7 32.4Q184.7 29.7 188.2 26.8L188.2 26.8 188.2 26.8Q191.7 24 194.7 24L194.7 24 194.7 24Z"/></g></svg>
